<?xml version="1.0" encoding="iso-8859-1"?>
<!-- Generator: Adobe Illustrator 19.0.0, SVG Export Plug-In . SVG Version: 6.00 Build 0)  -->
<svg version="1.1" id="Capa_1" xmlns="http://www.w3.org/2000/svg" xmlns:xlink="http://www.w3.org/1999/xlink" x="0px" y="0px"
	 viewBox="0 0 290.021 290.021" style="enable-background:new 0 0 290.021 290.021;" xml:space="preserve">
<path d="M270.251,218.13c32.399-55.52,24.837-128.12-22.7-175.658C220.162,15.083,183.747,0,145.013,0S69.863,15.083,42.475,42.472
	c-56.539,56.54-56.539,148.538,0,205.078c27.389,27.389,63.804,42.472,102.538,42.472s75.149-15.083,102.538-42.472
	c8.44-8.441,15.611-17.676,21.531-27.461h1.169V218.13z M236.944,53.079c0.174,0.174,0.341,0.352,0.514,0.527
	c-38.985,6.084-78.852-5.672-108.366-32.403l-5.001-4.529C130.945,15.571,137.935,15,145.013,15
	C179.74,15,212.389,28.523,236.944,53.079z M106.332,20.829l12.691,11.492C146.227,56.96,181.324,70.19,217.23,70.19
	c10.517,0,21.103-1.151,31.58-3.468c4.482,5.934,8.389,12.166,11.719,18.623c-23.106,6.453-49.424,7.684-73.125,3.311
	c-21.525-3.974-43.37-13.775-63.174-28.347l-8.89,12.082c21.621,15.907,45.599,26.633,69.341,31.015
	c10.242,1.891,20.936,2.824,31.686,2.824c17.163,0,34.466-2.384,50.307-7.038c3.282,8.755,5.589,17.794,6.921,26.95H172.171
	c-24.281,0-48.629-5.67-70.413-16.396C79.975,99.021,60.636,83.18,45.831,63.934l-1.193-1.551c2.64-3.202,5.45-6.31,8.443-9.303
	C68.223,37.937,86.446,26.997,106.332,20.829z M35.46,74.995c15.994,20.188,36.57,36.835,59.673,48.21
	c23.833,11.735,50.473,17.938,77.039,17.938h102.727c0.647,21.941-4.211,44.014-14.58,63.945h-70.652
	c-17.347,0-33.758-6.65-46.205-18.719l-0.44-0.429c-15.267-14.804-35.386-22.956-56.653-22.956H16.308
	C12.133,132.834,18.519,101.493,35.46,74.995z M236.944,236.942c-24.556,24.556-57.205,38.079-91.932,38.079
	s-67.376-13.523-91.932-38.079c-3.295-3.295-6.371-6.728-9.238-10.274h19.043c20.568,0,39.904,8.009,54.447,22.553l0.25,0.25
	l10.606-10.607l-0.25-0.25c-17.376-17.376-40.479-26.945-65.054-26.945H33.38c-6.348-10.634-11.043-21.985-14.09-33.683h67.079
	c17.347,0,33.758,6.65,46.205,18.719l0.44,0.429c15.267,14.804,35.386,22.956,56.653,22.956h61.493
	C246.971,226.004,242.238,231.648,236.944,236.942z"/>
<g>
</g>
<g>
</g>
<g>
</g>
<g>
</g>
<g>
</g>
<g>
</g>
<g>
</g>
<g>
</g>
<g>
</g>
<g>
</g>
<g>
</g>
<g>
</g>
<g>
</g>
<g>
</g>
<g>
</g>
</svg>
