<svg width="30" height="30" viewBox="0 0 30 30" fill="none" xmlns="http://www.w3.org/2000/svg">
<g clip-path="url(#clip0_7_463)">
<path d="M14.7428 24.4302L13.0132 25.3395L14.2807 27.9076C14.5749 28.5039 15.4251 28.5039 15.7194 27.9076L16.9868 25.3395L15.2573 24.4302C15.0962 24.3455 14.9038 24.3455 14.7428 24.4302Z" fill="#8C6239"/>
<path d="M7.27357 18.6298L5.80186 17.1952L3.7405 19.2045C3.26439 19.6686 3.5271 20.4772 4.18511 20.5728L7.11036 20.9979L7.43259 19.1191C7.46331 18.9398 7.40385 18.7568 7.27357 18.6298Z" fill="#8C6239"/>
<path d="M10.482 9.73365L11.3981 7.87738L8.76058 6.49077C8.17206 6.18139 7.48422 6.68111 7.59663 7.33643L8.10842 10.3205L10.0658 10.0361C10.2459 10.0099 10.4015 9.89685 10.482 9.73365Z" fill="#8C6239"/>
<path d="M22.5675 19.119L22.8897 20.9978L25.8149 20.5727C26.4729 20.4771 26.7357 19.6685 26.2596 19.2044L24.1982 17.1951L22.7265 18.6297C22.5962 18.7567 22.5367 18.9397 22.5675 19.119Z" fill="#8C6239"/>
<path d="M19.9342 10.0361L21.8916 10.3205L22.4034 7.33643C22.5158 6.68111 21.8279 6.18139 21.2394 6.49077L18.6019 7.87738L19.518 9.73365C19.5985 9.89685 19.7541 10.0099 19.9342 10.0361Z" fill="#8C6239"/>
<path d="M28.9283 11.343L21.8915 10.3205L19.9341 10.0361C19.7541 10.0099 19.5985 9.89686 19.5179 9.73372L18.6018 7.87745L15.4957 1.58365C15.2929 1.1728 14.7071 1.1728 14.5044 1.58365L11.3982 7.87739L10.4821 9.73366C10.4016 9.8968 10.2459 10.0099 10.0659 10.036L8.10848 10.3204L1.07174 11.3429C0.618337 11.4088 0.437324 11.966 0.765406 12.2858L5.80186 17.1952L7.27357 18.6298C7.40385 18.7568 7.46331 18.9397 7.43253 19.119L7.11031 20.9978L5.89616 28.0768C5.81871 28.5284 6.29267 28.8728 6.6982 28.6595L13.0132 25.3396L14.7427 24.4303C14.9038 24.3456 15.0962 24.3456 15.2572 24.4303L16.9868 25.3396L23.3017 28.6595C23.7073 28.8728 24.1812 28.5284 24.1038 28.0768L22.8896 20.9979L22.5674 19.1191C22.5366 18.9398 22.5961 18.7568 22.7264 18.6298L24.1981 17.1952L29.2345 12.2859C29.5627 11.9661 29.3817 11.4089 28.9283 11.343Z" fill="#FBB03B"/>
<path d="M29.9429 11.5346C29.8066 11.1151 29.4507 10.8151 29.0143 10.7517L22.5842 9.81731L22.9924 7.43749C23.0831 6.90844 22.8697 6.38386 22.4355 6.06839C22.0012 5.75292 21.4363 5.71216 20.9614 5.96184L18.8664 7.06322L16.0316 1.3192C16.0315 1.3192 16.0315 1.3192 16.0315 1.3192C15.8363 0.923652 15.441 0.677979 14.9999 0.677979C14.5589 0.677979 14.1636 0.923652 13.9683 1.3192L11.1335 7.06322L9.03852 5.96184C8.56349 5.71216 7.99858 5.75286 7.56442 6.06839C7.13015 6.38386 6.9168 6.9085 7.00752 7.43749L7.41568 9.81731L0.985741 10.7517C0.549254 10.8151 0.193383 11.1151 0.0571306 11.5346C-0.0791222 11.9542 0.0323899 12.406 0.348222 12.7138L4.94568 17.1952L3.32337 18.7766C2.939 19.1512 2.80328 19.7011 2.96906 20.2116C3.13489 20.722 3.56791 21.0871 4.09912 21.1642L6.41763 21.5011L5.30717 27.9758C5.23265 28.4106 5.40804 28.8417 5.76487 29.101C5.9665 29.2474 6.20237 29.3219 6.43992 29.3219C6.62272 29.3219 6.80648 29.2778 6.97632 29.1885L12.7487 26.1538L13.7448 28.1722C13.9823 28.6535 14.4633 28.9525 15.0001 28.9525C15.5368 28.9525 16.0178 28.6535 16.2553 28.1722L17.2515 26.1538L23.0238 29.1885C23.414 29.3937 23.8784 29.3603 24.2352 29.101C24.5921 28.8418 24.7674 28.4106 24.6929 27.9759L23.5824 21.5012L25.9009 21.1643C26.4321 21.0871 26.8651 20.7221 27.0309 20.2116C27.1967 19.7011 27.061 19.1513 26.6767 18.7767L25.0543 17.1953L29.6517 12.7139C29.9676 12.406 30.0791 11.9542 29.9429 11.5346ZM21.5175 7.01977C21.6155 6.96832 21.6946 7.0074 21.733 7.03537C21.7714 7.06327 21.8331 7.12638 21.8143 7.2355L21.401 9.64539L20.0434 9.44812L19.3955 8.13537L21.5175 7.01977ZM8.18569 7.2355C8.16698 7.12638 8.22865 7.06327 8.26702 7.03537C8.29182 7.01738 8.33353 6.99467 8.3863 6.99467C8.41534 6.99467 8.44773 7.00154 8.48245 7.01977L10.6044 8.13537L9.95655 9.44812L8.59899 9.64539L8.18569 7.2355ZM4.27105 19.9815C4.16151 19.9655 4.12051 19.8874 4.10581 19.8422C4.09117 19.797 4.07832 19.7097 4.15762 19.6324L5.8018 18.0297L6.83953 19.0413L6.61974 20.3227L4.27105 19.9815ZM15.1834 27.6432C15.1345 27.7425 15.0475 27.7573 15 27.7573C14.9525 27.7573 14.8655 27.7425 14.8166 27.6432L13.8069 25.5975L15 24.9702L16.1931 25.5975L15.1834 27.6432ZM25.8424 19.6325C25.9217 19.7097 25.9088 19.7971 25.8942 19.8422C25.8795 19.8874 25.8385 19.9656 25.729 19.9815L23.3802 20.3228L23.1604 19.0414L24.1981 18.0298L25.8424 19.6325ZM24.1981 16.3607L23.342 17.1953L22.3093 18.2019C22.0382 18.4663 21.9145 18.8469 21.9785 19.2201L22.1971 20.4947L22.3992 21.673L23.4995 28.0883L17.7805 25.0817L16.7222 24.5253L15.5353 23.9014C15.2001 23.7251 14.7999 23.7251 14.4647 23.9014L13.2778 24.5253L12.2195 25.0817L6.50057 28.0883L7.60087 21.673L7.80298 20.4947L8.02158 19.2201C8.08553 18.8469 7.96188 18.4663 7.69075 18.2019L6.65804 17.1952L5.80186 16.3607L1.24761 11.9213L7.61797 10.9957L8.80115 10.8237L10.1518 10.6275C10.5265 10.573 10.8503 10.3378 11.018 9.99821L11.6628 8.69174L12.1919 7.61958L15 1.92959L17.8081 7.61958L18.3372 8.69168L18.982 9.99827C19.1497 10.3379 19.4735 10.5731 19.8482 10.6275L21.1988 10.8237L22.382 10.9957L28.7524 11.9213L24.1981 16.3607Z" fill="black"/>
<path d="M9.41614 11.2111L5.76182 11.7422C5.43523 11.7896 5.20892 12.0929 5.25637 12.4195C5.29964 12.717 5.55505 12.9312 5.84704 12.9312C5.87566 12.9312 5.90459 12.9291 5.93375 12.9249L9.58807 12.3939C9.91466 12.3465 10.141 12.0432 10.0935 11.7166C10.0461 11.39 9.74321 11.1636 9.41614 11.2111Z" fill="black"/>
<path d="M4.07892 11.9868L3.45126 12.078C3.12467 12.1254 2.89836 12.4287 2.94581 12.7553C2.98908 13.0528 3.24449 13.267 3.53648 13.267C3.5651 13.267 3.59409 13.2649 3.62319 13.2607L4.25085 13.1695C4.57744 13.1221 4.80375 12.8188 4.7563 12.4922C4.70885 12.1656 4.40545 11.9393 4.07892 11.9868Z" fill="black"/>
</g>
<defs>
<clipPath id="clip0_7_463">
<rect width="30" height="30" fill="white"/>
</clipPath>
</defs>
</svg>
