<?xml version="1.0" encoding="iso-8859-1"?>
<!-- Generator: Adobe Illustrator 19.0.0, SVG Export Plug-In . SVG Version: 6.00 Build 0)  -->
<svg version="1.1" id="Capa_1" xmlns="http://www.w3.org/2000/svg" xmlns:xlink="http://www.w3.org/1999/xlink" x="0px" y="0px"
	 viewBox="0 0 511 511" style="enable-background:new 0 0 511 511;" xml:space="preserve">
<g>
	<g>
		<g>
			<path d="M383.5,347h-256c-0.652,0-1.302-0.085-1.933-0.253l-120-32c-2.152-0.574-3.938-2.075-4.874-4.097
				s-0.924-4.355,0.032-6.367C1.584,302.474,22.779,260,111.5,260h288c88.721,0,109.916,42.474,110.774,44.282
				c0.956,2.012,0.968,4.345,0.032,6.367s-2.722,3.523-4.874,4.097l-120,32C384.802,346.915,384.152,347,383.5,347z M128.483,332
				h254.034l108.277-28.874c-2.891-2.973-6.988-6.515-12.607-10.041C454.371,278.138,422.251,275,399.5,275h-288
				c-22.751,0-54.871,3.138-78.687,18.085c-5.617,3.525-9.713,7.064-12.605,10.042L128.483,332z"/>
		</g>
	</g>
	<g>
		<g>
			<path d="M503.5,315H7.5c-4.142,0-7.5-3.358-7.5-7.5s3.358-7.5,7.5-7.5h496c4.142,0,7.5,3.358,7.5,7.5S507.642,315,503.5,315z"/>
		</g>
	</g>
	<g>
		<g>
			<path d="M336.006,395H174.994c-6.994,0-13.574-3.082-18.053-8.455l-35.203-42.244c-2.652-3.182-2.222-7.911,0.96-10.563
				c3.181-2.652,7.911-2.223,10.563,0.96l35.203,42.243c1.62,1.943,4,3.058,6.53,3.058h161.012c2.53,0,4.91-1.115,6.53-3.059
				l35.202-42.243c2.652-3.181,7.381-3.612,10.563-0.96c3.182,2.652,3.612,7.381,0.96,10.563l-35.202,42.243
				C349.581,391.918,343,395,336.006,395z"/>
		</g>
	</g>
	<g>
		<g>
			<path d="M375.5,275h-240c-2.766,0-5.308-1.522-6.613-3.961c-1.305-2.439-1.162-5.398,0.373-7.699l54.5-81.75
				C191.103,170.575,203.389,164,216.626,164h77.749c13.237,0,25.523,6.575,32.866,17.589l54.5,81.75
				c1.534,2.301,1.677,5.26,0.373,7.699C380.808,273.478,378.266,275,375.5,275z M149.514,260h211.973l-46.727-70.09
				c-4.555-6.831-12.175-10.91-20.385-10.91h-77.749c-8.21,0-15.831,4.079-20.385,10.91L149.514,260z"/>
		</g>
	</g>
	<g>
		<g>
			<path d="M255.5,155c-4.142,0-7.5-3.358-7.5-7.5v-24c0-4.142,3.358-7.5,7.5-7.5s7.5,3.358,7.5,7.5v24
				C263,151.642,259.642,155,255.5,155z"/>
		</g>
	</g>
	<g>
		<g>
			<path d="M255.5,275c-4.142,0-7.5-3.358-7.5-7.5v-96c0-4.142,3.358-7.5,7.5-7.5s7.5,3.358,7.5,7.5v96
				C263,271.642,259.642,275,255.5,275z"/>
		</g>
	</g>
	<g>
		<g>
			<path d="M191.501,275.002c-0.786,0-1.586-0.125-2.373-0.387c-3.93-1.31-6.053-5.557-4.744-9.487l32-96
				c1.31-3.929,5.558-6.052,9.487-4.744c3.93,1.31,6.053,5.557,4.744,9.487l-32,96C197.567,273.014,194.641,275.002,191.501,275.002
				z"/>
		</g>
	</g>
	<g>
		<g>
			<path d="M319.499,275.002c-3.141,0-6.066-1.987-7.114-5.13l-32-96c-1.31-3.93,0.814-8.177,4.744-9.487
				c3.929-1.31,8.177,0.814,9.487,4.744l32,96c1.31,3.93-0.814,8.177-4.744,9.487C321.085,274.877,320.285,275.002,319.499,275.002z
				"/>
		</g>
	</g>
	<g>
		<g>
			<path d="M279.5,179c-4.142,0-7.5-3.358-7.5-7.5c0-9.098-7.402-16.5-16.5-16.5s-16.5,7.402-16.5,16.5c0,4.142-3.358,7.5-7.5,7.5
				s-7.5-3.358-7.5-7.5c0-17.369,14.131-31.5,31.5-31.5s31.5,14.131,31.5,31.5C287,175.642,283.642,179,279.5,179z"/>
		</g>
	</g>
</g>
<g>
</g>
<g>
</g>
<g>
</g>
<g>
</g>
<g>
</g>
<g>
</g>
<g>
</g>
<g>
</g>
<g>
</g>
<g>
</g>
<g>
</g>
<g>
</g>
<g>
</g>
<g>
</g>
<g>
</g>
</svg>
